<mxfile host="drawio-plugin" modified="2025-04-14T14:07:09.946Z" agent="Mozilla/5.0 (Windows NT 10.0; Win64; x64) AppleWebKit/537.36 (KHTML, like Gecko) Chrome/122.0.0.0 Safari/537.36" version="22.1.22" etag="xO51zBgboz3I2bP99-oI" type="embed">
  <diagram id="sxqVWfXkjAB5cVP8b3de" name="Page-1">
    <mxGraphModel dx="2575" dy="2353" grid="1" gridSize="10" guides="1" tooltips="1" connect="1" arrows="1" fold="1" page="1" pageScale="1" pageWidth="850" pageHeight="1100" math="0" shadow="0">
      <root>
        <mxCell id="0" />
        <mxCell id="1" parent="0" />
        <mxCell id="2" value="Hệ thống" style="shape=umlActor;verticalLabelPosition=bottom;verticalAlign=top;html=1;outlineConnect=0;" vertex="1" parent="1">
          <mxGeometry x="70" y="-280" width="30" height="60" as="geometry" />
        </mxCell>
        <mxCell id="3" value="Admin" style="shape=umlActor;verticalLabelPosition=bottom;verticalAlign=top;html=1;outlineConnect=0;" vertex="1" parent="1">
          <mxGeometry x="-70" y="2660" width="30" height="60" as="geometry" />
        </mxCell>
        <mxCell id="4" value="Manager" style="shape=umlActor;verticalLabelPosition=bottom;verticalAlign=top;html=1;outlineConnect=0;" vertex="1" parent="1">
          <mxGeometry x="-70" y="2450" width="30" height="60" as="geometry" />
        </mxCell>
        <mxCell id="5" value="User" style="shape=umlActor;verticalLabelPosition=bottom;verticalAlign=top;html=1;outlineConnect=0;" vertex="1" parent="1">
          <mxGeometry x="-180" y="210" width="30" height="60" as="geometry" />
        </mxCell>
        <mxCell id="8" value="" style="endArrow=none;html=1;rounded=0;exitX=1;exitY=0.3333333333333333;exitDx=0;exitDy=0;exitPerimeter=0;entryX=0;entryY=0.5;entryDx=0;entryDy=0;" edge="1" parent="1" source="2" target="9">
          <mxGeometry width="50" height="50" relative="1" as="geometry">
            <mxPoint x="170" y="-220" as="sourcePoint" />
            <mxPoint x="260" y="-260" as="targetPoint" />
          </mxGeometry>
        </mxCell>
        <mxCell id="9" value="khởi tạo tài khoản admin" style="ellipse;whiteSpace=wrap;html=1;" vertex="1" parent="1">
          <mxGeometry x="250" y="-300" width="200" height="80" as="geometry" />
        </mxCell>
        <mxCell id="10" value="thay đổi thông tin cá nhân" style="ellipse;whiteSpace=wrap;html=1;" vertex="1" parent="1">
          <mxGeometry x="290" y="-160" width="170" height="80" as="geometry" />
        </mxCell>
        <mxCell id="11" value="đổi mật khẩu" style="ellipse;whiteSpace=wrap;html=1;" vertex="1" parent="1">
          <mxGeometry x="315" y="-50" width="120" height="80" as="geometry" />
        </mxCell>
        <mxCell id="12" value="kiểm tra mật khẩu hiện tại" style="ellipse;whiteSpace=wrap;html=1;" vertex="1" parent="1">
          <mxGeometry x="297.5" y="80" width="155" height="80" as="geometry" />
        </mxCell>
        <mxCell id="13" value="xem danh sách đơn ứng tuyển của ứng viên" style="ellipse;whiteSpace=wrap;html=1;" vertex="1" parent="1">
          <mxGeometry x="302.5" y="160" width="145" height="80" as="geometry" />
        </mxCell>
        <mxCell id="14" value="xem chi tiết đơn ứng tuyển của ứng viên" style="ellipse;whiteSpace=wrap;html=1;" vertex="1" parent="1">
          <mxGeometry x="295" y="310" width="155" height="80" as="geometry" />
        </mxCell>
        <mxCell id="15" value="xem danh sách vị trí tuyển dụng đang hoạt đôộng" style="ellipse;whiteSpace=wrap;html=1;" vertex="1" parent="1">
          <mxGeometry x="287.5" y="390" width="175" height="80" as="geometry" />
        </mxCell>
        <mxCell id="16" value="xem chi tiết và nộp đơn ứng tuyển" style="ellipse;whiteSpace=wrap;html=1;" vertex="1" parent="1">
          <mxGeometry x="312.5" y="550" width="120" height="80" as="geometry" />
        </mxCell>
        <mxCell id="17" value="đăng kí tài khoản ứng viên" style="ellipse;whiteSpace=wrap;html=1;" vertex="1" parent="1">
          <mxGeometry x="315" y="630" width="120" height="80" as="geometry" />
        </mxCell>
        <mxCell id="18" value="đăng nhập ứng viên" style="ellipse;whiteSpace=wrap;html=1;" vertex="1" parent="1">
          <mxGeometry x="315" y="750" width="120" height="80" as="geometry" />
        </mxCell>
        <mxCell id="20" value="" style="endArrow=none;html=1;rounded=0;entryX=0;entryY=0.5;entryDx=0;entryDy=0;exitX=0.5;exitY=0;exitDx=0;exitDy=0;exitPerimeter=0;" edge="1" parent="1" source="5" target="10">
          <mxGeometry width="50" height="50" relative="1" as="geometry">
            <mxPoint x="120" y="70" as="sourcePoint" />
            <mxPoint x="170" y="20" as="targetPoint" />
          </mxGeometry>
        </mxCell>
        <mxCell id="21" value="" style="endArrow=none;html=1;rounded=0;entryX=0;entryY=0.5;entryDx=0;entryDy=0;exitX=0.75;exitY=0.1;exitDx=0;exitDy=0;exitPerimeter=0;" edge="1" parent="1" source="5" target="11">
          <mxGeometry width="50" height="50" relative="1" as="geometry">
            <mxPoint x="180" y="200" as="sourcePoint" />
            <mxPoint x="230" y="150" as="targetPoint" />
          </mxGeometry>
        </mxCell>
        <mxCell id="23" value="" style="endArrow=none;html=1;rounded=0;entryX=0;entryY=0.5;entryDx=0;entryDy=0;exitX=1;exitY=0.3333333333333333;exitDx=0;exitDy=0;exitPerimeter=0;" edge="1" parent="1" source="5" target="13">
          <mxGeometry width="50" height="50" relative="1" as="geometry">
            <mxPoint x="130" y="340" as="sourcePoint" />
            <mxPoint x="180" y="290" as="targetPoint" />
          </mxGeometry>
        </mxCell>
        <mxCell id="24" value="" style="endArrow=none;html=1;rounded=0;entryX=0;entryY=0.5;entryDx=0;entryDy=0;exitX=0.5;exitY=0.5;exitDx=0;exitDy=0;exitPerimeter=0;" edge="1" parent="1" source="5" target="14">
          <mxGeometry width="50" height="50" relative="1" as="geometry">
            <mxPoint x="110" y="220" as="sourcePoint" />
            <mxPoint x="312" y="210" as="targetPoint" />
          </mxGeometry>
        </mxCell>
        <mxCell id="25" value="" style="endArrow=none;html=1;rounded=0;entryX=0;entryY=0.5;entryDx=0;entryDy=0;exitX=0.5;exitY=0.5;exitDx=0;exitDy=0;exitPerimeter=0;" edge="1" parent="1" source="5" target="15">
          <mxGeometry width="50" height="50" relative="1" as="geometry">
            <mxPoint x="120" y="230" as="sourcePoint" />
            <mxPoint x="322" y="220" as="targetPoint" />
          </mxGeometry>
        </mxCell>
        <mxCell id="26" value="" style="endArrow=none;html=1;rounded=0;entryX=0;entryY=0.5;entryDx=0;entryDy=0;exitX=0.5;exitY=0.5;exitDx=0;exitDy=0;exitPerimeter=0;" edge="1" parent="1" source="5" target="16">
          <mxGeometry width="50" height="50" relative="1" as="geometry">
            <mxPoint x="130" y="240" as="sourcePoint" />
            <mxPoint x="332" y="230" as="targetPoint" />
          </mxGeometry>
        </mxCell>
        <mxCell id="27" value="" style="endArrow=none;html=1;rounded=0;entryX=0;entryY=0.5;entryDx=0;entryDy=0;exitX=0.5;exitY=0.5;exitDx=0;exitDy=0;exitPerimeter=0;" edge="1" parent="1" source="5" target="17">
          <mxGeometry width="50" height="50" relative="1" as="geometry">
            <mxPoint x="140" y="250" as="sourcePoint" />
            <mxPoint x="342" y="240" as="targetPoint" />
          </mxGeometry>
        </mxCell>
        <mxCell id="28" value="" style="endArrow=none;html=1;rounded=0;entryX=0;entryY=0.5;entryDx=0;entryDy=0;exitX=0.5;exitY=0.5;exitDx=0;exitDy=0;exitPerimeter=0;" edge="1" parent="1" source="5" target="18">
          <mxGeometry width="50" height="50" relative="1" as="geometry">
            <mxPoint x="150" y="260" as="sourcePoint" />
            <mxPoint x="352" y="250" as="targetPoint" />
          </mxGeometry>
        </mxCell>
        <mxCell id="29" value="include" style="endArrow=open;endSize=12;dashed=1;html=1;rounded=0;exitX=0.414;exitY=1.014;exitDx=0;exitDy=0;exitPerimeter=0;entryX=0.5;entryY=0;entryDx=0;entryDy=0;" edge="1" parent="1" source="11" target="12">
          <mxGeometry x="0.0114" width="160" relative="1" as="geometry">
            <mxPoint x="340" y="50" as="sourcePoint" />
            <mxPoint x="500" y="50" as="targetPoint" />
            <mxPoint as="offset" />
          </mxGeometry>
        </mxCell>
        <mxCell id="30" value="extend" style="endArrow=open;endSize=12;dashed=1;html=1;rounded=0;exitX=0.5;exitY=1;exitDx=0;exitDy=0;entryX=0.5;entryY=0;entryDx=0;entryDy=0;" edge="1" parent="1" source="13" target="14">
          <mxGeometry x="0.0114" width="160" relative="1" as="geometry">
            <mxPoint x="375" y="41" as="sourcePoint" />
            <mxPoint x="385" y="90" as="targetPoint" />
            <mxPoint as="offset" />
          </mxGeometry>
        </mxCell>
        <mxCell id="32" value="extend" style="endArrow=open;endSize=12;dashed=1;html=1;rounded=0;exitX=0.5;exitY=1;exitDx=0;exitDy=0;entryX=0.5;entryY=0;entryDx=0;entryDy=0;" edge="1" parent="1" source="15" target="16">
          <mxGeometry x="0.0114" width="160" relative="1" as="geometry">
            <mxPoint x="385" y="250" as="sourcePoint" />
            <mxPoint x="383" y="320" as="targetPoint" />
            <mxPoint as="offset" />
          </mxGeometry>
        </mxCell>
        <mxCell id="34" value="thêm vị trí tuyển dụng" style="ellipse;whiteSpace=wrap;html=1;" vertex="1" parent="1">
          <mxGeometry x="313" y="870" width="120" height="80" as="geometry" />
        </mxCell>
        <mxCell id="35" value="cập nhật vị trí tuyển dụng" style="ellipse;whiteSpace=wrap;html=1;" vertex="1" parent="1">
          <mxGeometry x="315" y="1010" width="120" height="80" as="geometry" />
        </mxCell>
        <mxCell id="36" value="đăng nhập admin/manager" style="ellipse;whiteSpace=wrap;html=1;" vertex="1" parent="1">
          <mxGeometry x="315" y="1220" width="120" height="80" as="geometry" />
        </mxCell>
        <mxCell id="37" value="kiểm tra dữ liệu hợp lệ" style="ellipse;whiteSpace=wrap;html=1;" vertex="1" parent="1">
          <mxGeometry x="311.5" y="1090" width="127" height="80" as="geometry" />
        </mxCell>
        <mxCell id="41" value="include" style="endArrow=open;endSize=12;dashed=1;html=1;rounded=0;exitX=0;exitY=0.5;exitDx=0;exitDy=0;entryX=0;entryY=0.5;entryDx=0;entryDy=0;" edge="1" parent="1" source="16" target="37">
          <mxGeometry x="0.6972" y="5" width="160" relative="1" as="geometry">
            <mxPoint x="395" y="61" as="sourcePoint" />
            <mxPoint x="405" y="110" as="targetPoint" />
            <mxPoint as="offset" />
            <Array as="points">
              <mxPoint x="50" y="570" />
              <mxPoint x="70" y="940" />
            </Array>
          </mxGeometry>
        </mxCell>
        <mxCell id="43" value="" style="endArrow=none;dashed=1;html=1;dashPattern=1 3;strokeWidth=2;rounded=0;entryX=0;entryY=0.5;entryDx=0;entryDy=0;" edge="1" parent="1" target="17">
          <mxGeometry width="50" height="50" relative="1" as="geometry">
            <mxPoint x="50" y="570" as="sourcePoint" />
            <mxPoint x="230" y="670" as="targetPoint" />
          </mxGeometry>
        </mxCell>
        <mxCell id="44" value="" style="endArrow=none;dashed=1;html=1;rounded=0;entryX=0;entryY=0.5;entryDx=0;entryDy=0;" edge="1" parent="1" target="18">
          <mxGeometry width="50" height="50" relative="1" as="geometry">
            <mxPoint x="70" y="940" as="sourcePoint" />
            <mxPoint x="250" y="730" as="targetPoint" />
          </mxGeometry>
        </mxCell>
        <mxCell id="45" value="" style="endArrow=none;dashed=1;html=1;rounded=0;entryX=0;entryY=0.5;entryDx=0;entryDy=0;" edge="1" parent="1" target="10">
          <mxGeometry width="50" height="50" relative="1" as="geometry">
            <mxPoint x="50" y="570" as="sourcePoint" />
            <mxPoint x="325" y="800" as="targetPoint" />
          </mxGeometry>
        </mxCell>
        <mxCell id="46" value="" style="endArrow=none;dashed=1;html=1;rounded=0;entryX=0;entryY=0.5;entryDx=0;entryDy=0;" edge="1" parent="1" target="34">
          <mxGeometry width="50" height="50" relative="1" as="geometry">
            <mxPoint x="70" y="940" as="sourcePoint" />
            <mxPoint x="280" y="880" as="targetPoint" />
          </mxGeometry>
        </mxCell>
        <mxCell id="47" value="" style="endArrow=none;dashed=1;html=1;rounded=0;entryX=0;entryY=0.5;entryDx=0;entryDy=0;" edge="1" parent="1" target="35">
          <mxGeometry width="50" height="50" relative="1" as="geometry">
            <mxPoint x="70" y="940" as="sourcePoint" />
            <mxPoint x="323" y="920" as="targetPoint" />
          </mxGeometry>
        </mxCell>
        <mxCell id="49" value="include" style="endArrow=open;endSize=12;dashed=1;html=1;rounded=0;exitX=0.5;exitY=0;exitDx=0;exitDy=0;entryX=0.5;entryY=1;entryDx=0;entryDy=0;" edge="1" parent="1" source="36" target="37">
          <mxGeometry width="160" relative="1" as="geometry">
            <mxPoint x="430" y="1240" as="sourcePoint" />
            <mxPoint x="590" y="1240" as="targetPoint" />
          </mxGeometry>
        </mxCell>
        <mxCell id="50" value="lọc ứng viên theo kinh nghiệm" style="ellipse;whiteSpace=wrap;html=1;" vertex="1" parent="1">
          <mxGeometry x="302.5" y="1340" width="145" height="80" as="geometry" />
        </mxCell>
        <mxCell id="51" value="lọc ứng viên theo tuổi" style="ellipse;whiteSpace=wrap;html=1;" vertex="1" parent="1">
          <mxGeometry x="315" y="1450" width="120" height="80" as="geometry" />
        </mxCell>
        <mxCell id="52" value="lọc ứng viên theo công nghệ" style="ellipse;whiteSpace=wrap;html=1;" vertex="1" parent="1">
          <mxGeometry x="315" y="1570" width="120" height="80" as="geometry" />
        </mxCell>
        <mxCell id="53" value="lọc ứng viên theo giới tính" style="ellipse;whiteSpace=wrap;html=1;" vertex="1" parent="1">
          <mxGeometry x="304.5" y="1680" width="137" height="80" as="geometry" />
        </mxCell>
        <mxCell id="54" value="xoá công nghệ" style="ellipse;whiteSpace=wrap;html=1;" vertex="1" parent="1">
          <mxGeometry x="313" y="1790" width="120" height="80" as="geometry" />
        </mxCell>
        <mxCell id="55" value="xem danh sách đơn ứng tuyển" style="ellipse;whiteSpace=wrap;html=1;" vertex="1" parent="1">
          <mxGeometry x="313" y="1900" width="120" height="80" as="geometry" />
        </mxCell>
        <mxCell id="56" value="xem danh sách vị trí tuyển dụng" style="ellipse;whiteSpace=wrap;html=1;" vertex="1" parent="1">
          <mxGeometry x="313" y="2010" width="120" height="80" as="geometry" />
        </mxCell>
        <mxCell id="57" value="lọc đơn ứng tuyển" style="ellipse;whiteSpace=wrap;html=1;" vertex="1" parent="1">
          <mxGeometry x="315" y="2120" width="120" height="80" as="geometry" />
        </mxCell>
        <mxCell id="59" value="huỷ đơn ứng tuyển" style="ellipse;whiteSpace=wrap;html=1;" vertex="1" parent="1">
          <mxGeometry x="313" y="2240" width="120" height="80" as="geometry" />
        </mxCell>
        <mxCell id="60" value="xoá vị trí ứng tuyển" style="ellipse;whiteSpace=wrap;html=1;" vertex="1" parent="1">
          <mxGeometry x="313" y="2360" width="120" height="80" as="geometry" />
        </mxCell>
        <mxCell id="61" value="xem chi tiết đơn ứng tuyển" style="ellipse;whiteSpace=wrap;html=1;" vertex="1" parent="1">
          <mxGeometry x="313" y="3350" width="120" height="80" as="geometry" />
        </mxCell>
        <mxCell id="62" value="thêm công nghệ" style="ellipse;whiteSpace=wrap;html=1;" vertex="1" parent="1">
          <mxGeometry x="311" y="2470" width="120" height="80" as="geometry" />
        </mxCell>
        <mxCell id="63" value="sửa công nghệ" style="ellipse;whiteSpace=wrap;html=1;" vertex="1" parent="1">
          <mxGeometry x="311" y="2600" width="120" height="80" as="geometry" />
        </mxCell>
        <mxCell id="64" value="kiểm tra tên công nghệ" style="ellipse;whiteSpace=wrap;html=1;" vertex="1" parent="1">
          <mxGeometry x="313" y="2730" width="120" height="80" as="geometry" />
        </mxCell>
        <mxCell id="65" value="tìm kiếm ứng viên theo tên" style="ellipse;whiteSpace=wrap;html=1;" vertex="1" parent="1">
          <mxGeometry x="313" y="2930" width="120" height="80" as="geometry" />
        </mxCell>
        <mxCell id="66" value="xem danh sách công nghệ" style="ellipse;whiteSpace=wrap;html=1;" vertex="1" parent="1">
          <mxGeometry x="311" y="2830" width="120" height="80" as="geometry" />
        </mxCell>
        <mxCell id="67" value="mở/khoá tài khoản ứng viên" style="ellipse;whiteSpace=wrap;html=1;" vertex="1" parent="1">
          <mxGeometry x="313" y="3030" width="120" height="80" as="geometry" />
        </mxCell>
        <mxCell id="68" value="reset mật khẩu ứng viên" style="ellipse;whiteSpace=wrap;html=1;" vertex="1" parent="1">
          <mxGeometry x="311" y="3130" width="120" height="80" as="geometry" />
        </mxCell>
        <mxCell id="69" value="kiểm tra tồn tại ứng viên" style="ellipse;whiteSpace=wrap;html=1;" vertex="1" parent="1">
          <mxGeometry x="310.5" y="3260" width="120" height="80" as="geometry" />
        </mxCell>
        <mxCell id="70" value="chuyển đơn qua trạng thái phỏng vấn" style="ellipse;whiteSpace=wrap;html=1;" vertex="1" parent="1">
          <mxGeometry x="310.5" y="3500" width="120" height="80" as="geometry" />
        </mxCell>
        <mxCell id="71" value="cập nhật kết quả đơn ứng tuyển" style="ellipse;whiteSpace=wrap;html=1;" vertex="1" parent="1">
          <mxGeometry x="311" y="3640" width="120" height="80" as="geometry" />
        </mxCell>
        <mxCell id="72" value="xem danh sách ứng viên" style="ellipse;whiteSpace=wrap;html=1;" vertex="1" parent="1">
          <mxGeometry x="315" y="3740" width="120" height="80" as="geometry" />
        </mxCell>
        <mxCell id="73" value="inlclude" style="endArrow=open;endSize=12;dashed=1;html=1;rounded=0;exitX=0.5;exitY=1;exitDx=0;exitDy=0;entryX=0.5;entryY=0;entryDx=0;entryDy=0;" edge="1" parent="1" source="63" target="64">
          <mxGeometry width="160" relative="1" as="geometry">
            <mxPoint x="398" y="2700" as="sourcePoint" />
            <mxPoint x="558" y="2700" as="targetPoint" />
          </mxGeometry>
        </mxCell>
        <mxCell id="74" value="inlclude" style="endArrow=open;endSize=12;dashed=1;html=1;rounded=0;exitX=0;exitY=0.5;exitDx=0;exitDy=0;entryX=0;entryY=0;entryDx=0;entryDy=0;" edge="1" parent="1" source="62" target="64">
          <mxGeometry width="160" relative="1" as="geometry">
            <mxPoint x="381" y="2690" as="sourcePoint" />
            <mxPoint x="383" y="2740" as="targetPoint" />
            <Array as="points">
              <mxPoint x="268" y="2620" />
            </Array>
          </mxGeometry>
        </mxCell>
        <mxCell id="75" value="inlclude" style="endArrow=open;endSize=12;dashed=1;html=1;rounded=0;exitX=0.5;exitY=1;exitDx=0;exitDy=0;entryX=0.5;entryY=0;entryDx=0;entryDy=0;" edge="1" parent="1">
          <mxGeometry width="160" relative="1" as="geometry">
            <mxPoint x="372" y="3210" as="sourcePoint" />
            <mxPoint x="374" y="3260" as="targetPoint" />
          </mxGeometry>
        </mxCell>
        <mxCell id="76" value="inlclude" style="endArrow=open;endSize=12;dashed=1;html=1;rounded=0;exitX=1;exitY=0.5;exitDx=0;exitDy=0;entryX=1;entryY=0.5;entryDx=0;entryDy=0;" edge="1" parent="1" source="67" target="69">
          <mxGeometry width="160" relative="1" as="geometry">
            <mxPoint x="382" y="3220" as="sourcePoint" />
            <mxPoint x="384" y="3270" as="targetPoint" />
            <Array as="points">
              <mxPoint x="478" y="3190" />
            </Array>
          </mxGeometry>
        </mxCell>
        <mxCell id="77" value="extend" style="endArrow=open;endSize=12;dashed=1;html=1;rounded=0;exitX=0.5;exitY=1;exitDx=0;exitDy=0;" edge="1" parent="1" source="61" target="70">
          <mxGeometry width="160" relative="1" as="geometry">
            <mxPoint x="430" y="3480" as="sourcePoint" />
            <mxPoint x="590" y="3480" as="targetPoint" />
          </mxGeometry>
        </mxCell>
        <mxCell id="78" value="extend" style="endArrow=open;endSize=12;dashed=1;html=1;rounded=0;exitX=0.5;exitY=1;exitDx=0;exitDy=0;entryX=0.5;entryY=0;entryDx=0;entryDy=0;" edge="1" parent="1" source="70" target="71">
          <mxGeometry width="160" relative="1" as="geometry">
            <mxPoint x="383" y="3440" as="sourcePoint" />
            <mxPoint x="381" y="3510" as="targetPoint" />
            <Array as="points" />
          </mxGeometry>
        </mxCell>
        <mxCell id="79" value="" style="endArrow=none;html=1;rounded=0;entryX=0;entryY=0.5;entryDx=0;entryDy=0;exitX=0.75;exitY=0.1;exitDx=0;exitDy=0;exitPerimeter=0;" edge="1" parent="1" source="4" target="34">
          <mxGeometry width="50" height="50" relative="1" as="geometry">
            <mxPoint x="90" y="1430" as="sourcePoint" />
            <mxPoint x="140" y="1380" as="targetPoint" />
            <Array as="points">
              <mxPoint x="50" y="2456" />
            </Array>
          </mxGeometry>
        </mxCell>
        <mxCell id="80" value="" style="endArrow=none;html=1;rounded=0;exitX=1;exitY=0.3333333333333333;exitDx=0;exitDy=0;exitPerimeter=0;entryX=0;entryY=0.5;entryDx=0;entryDy=0;" edge="1" parent="1" source="3" target="72">
          <mxGeometry width="50" height="50" relative="1" as="geometry">
            <mxPoint x="70" y="2690" as="sourcePoint" />
            <mxPoint x="120" y="2640" as="targetPoint" />
            <Array as="points">
              <mxPoint x="50" y="2680" />
            </Array>
          </mxGeometry>
        </mxCell>
        <mxCell id="81" value="" style="endArrow=none;html=1;rounded=0;" edge="1" parent="1">
          <mxGeometry width="50" height="50" relative="1" as="geometry">
            <mxPoint x="50" y="2680" as="sourcePoint" />
            <mxPoint x="50" y="2450" as="targetPoint" />
          </mxGeometry>
        </mxCell>
        <mxCell id="82" value="" style="endArrow=none;html=1;rounded=0;entryX=0;entryY=0.5;entryDx=0;entryDy=0;" edge="1" parent="1" target="35">
          <mxGeometry width="50" height="50" relative="1" as="geometry">
            <mxPoint x="50" y="2450" as="sourcePoint" />
            <mxPoint x="140" y="1350" as="targetPoint" />
          </mxGeometry>
        </mxCell>
        <mxCell id="83" value="" style="endArrow=none;html=1;rounded=0;entryX=0;entryY=0.5;entryDx=0;entryDy=0;" edge="1" parent="1" target="36">
          <mxGeometry width="50" height="50" relative="1" as="geometry">
            <mxPoint x="50" y="2440" as="sourcePoint" />
            <mxPoint x="325" y="1060" as="targetPoint" />
          </mxGeometry>
        </mxCell>
        <mxCell id="84" value="" style="endArrow=none;html=1;rounded=0;entryX=0;entryY=0.5;entryDx=0;entryDy=0;" edge="1" parent="1" target="50">
          <mxGeometry width="50" height="50" relative="1" as="geometry">
            <mxPoint x="50" y="2452.8571428571427" as="sourcePoint" />
            <mxPoint x="310" y="1630" as="targetPoint" />
          </mxGeometry>
        </mxCell>
        <mxCell id="85" value="" style="endArrow=none;html=1;rounded=0;entryX=0;entryY=0.5;entryDx=0;entryDy=0;" edge="1" parent="1" target="62">
          <mxGeometry width="50" height="50" relative="1" as="geometry">
            <mxPoint x="50" y="2460" as="sourcePoint" />
            <mxPoint x="240" y="2520" as="targetPoint" />
          </mxGeometry>
        </mxCell>
        <mxCell id="86" value="" style="endArrow=none;html=1;rounded=0;entryX=0;entryY=0.5;entryDx=0;entryDy=0;" edge="1" parent="1" target="63">
          <mxGeometry width="50" height="50" relative="1" as="geometry">
            <mxPoint x="50" y="2680" as="sourcePoint" />
            <mxPoint x="190" y="2570" as="targetPoint" />
          </mxGeometry>
        </mxCell>
        <mxCell id="87" value="" style="endArrow=none;html=1;rounded=0;entryX=-0.008;entryY=0.375;entryDx=0;entryDy=0;entryPerimeter=0;" edge="1" parent="1" target="66">
          <mxGeometry width="50" height="50" relative="1" as="geometry">
            <mxPoint x="50" y="2680" as="sourcePoint" />
            <mxPoint x="240" y="2780" as="targetPoint" />
          </mxGeometry>
        </mxCell>
        <mxCell id="88" value="" style="endArrow=none;html=1;rounded=0;entryX=0;entryY=0.5;entryDx=0;entryDy=0;" edge="1" parent="1" target="65">
          <mxGeometry width="50" height="50" relative="1" as="geometry">
            <mxPoint x="50" y="2680" as="sourcePoint" />
            <mxPoint x="250" y="2870" as="targetPoint" />
          </mxGeometry>
        </mxCell>
        <mxCell id="89" value="" style="endArrow=none;html=1;rounded=0;entryX=0;entryY=0.5;entryDx=0;entryDy=0;" edge="1" parent="1" target="67">
          <mxGeometry width="50" height="50" relative="1" as="geometry">
            <mxPoint x="50" y="2680" as="sourcePoint" />
            <mxPoint x="250" y="2950" as="targetPoint" />
          </mxGeometry>
        </mxCell>
        <mxCell id="90" value="" style="endArrow=none;html=1;rounded=0;entryX=0;entryY=0.5;entryDx=0;entryDy=0;" edge="1" parent="1" target="68">
          <mxGeometry width="50" height="50" relative="1" as="geometry">
            <mxPoint x="50" y="2680" as="sourcePoint" />
            <mxPoint x="200" y="2920" as="targetPoint" />
          </mxGeometry>
        </mxCell>
        <mxCell id="91" value="" style="endArrow=none;html=1;rounded=0;entryX=0;entryY=0.5;entryDx=0;entryDy=0;" edge="1" parent="1" target="61">
          <mxGeometry width="50" height="50" relative="1" as="geometry">
            <mxPoint x="50" y="2680" as="sourcePoint" />
            <mxPoint x="270" y="3160" as="targetPoint" />
          </mxGeometry>
        </mxCell>
        <mxCell id="92" value="" style="endArrow=none;html=1;rounded=0;entryX=0;entryY=0.5;entryDx=0;entryDy=0;" edge="1" parent="1" target="70">
          <mxGeometry width="50" height="50" relative="1" as="geometry">
            <mxPoint x="50" y="2680" as="sourcePoint" />
            <mxPoint x="150" y="3380" as="targetPoint" />
          </mxGeometry>
        </mxCell>
        <mxCell id="93" value="" style="endArrow=none;html=1;rounded=0;entryX=0;entryY=0;entryDx=0;entryDy=0;" edge="1" parent="1" target="71">
          <mxGeometry width="50" height="50" relative="1" as="geometry">
            <mxPoint x="50" y="2680" as="sourcePoint" />
            <mxPoint x="40" y="3010" as="targetPoint" />
          </mxGeometry>
        </mxCell>
        <mxCell id="94" value="" style="endArrow=none;html=1;rounded=0;" edge="1" parent="1">
          <mxGeometry width="50" height="50" relative="1" as="geometry">
            <mxPoint x="50" y="2450" as="sourcePoint" />
            <mxPoint x="320" y="1500" as="targetPoint" />
          </mxGeometry>
        </mxCell>
        <mxCell id="95" value="" style="endArrow=none;html=1;rounded=0;entryX=0;entryY=0.5;entryDx=0;entryDy=0;" edge="1" parent="1" target="52">
          <mxGeometry width="50" height="50" relative="1" as="geometry">
            <mxPoint x="50" y="2450" as="sourcePoint" />
            <mxPoint x="330" y="1510" as="targetPoint" />
          </mxGeometry>
        </mxCell>
        <mxCell id="96" value="" style="endArrow=none;html=1;rounded=0;entryX=0;entryY=0.5;entryDx=0;entryDy=0;" edge="1" parent="1" target="53">
          <mxGeometry width="50" height="50" relative="1" as="geometry">
            <mxPoint x="50" y="2450" as="sourcePoint" />
            <mxPoint x="340" y="1520" as="targetPoint" />
          </mxGeometry>
        </mxCell>
        <mxCell id="97" value="" style="endArrow=none;html=1;rounded=0;entryX=0;entryY=0.5;entryDx=0;entryDy=0;" edge="1" parent="1" target="54">
          <mxGeometry width="50" height="50" relative="1" as="geometry">
            <mxPoint x="50" y="2460" as="sourcePoint" />
            <mxPoint x="350" y="1530" as="targetPoint" />
          </mxGeometry>
        </mxCell>
        <mxCell id="98" value="" style="endArrow=none;html=1;rounded=0;entryX=0;entryY=0.5;entryDx=0;entryDy=0;" edge="1" parent="1" target="56">
          <mxGeometry width="50" height="50" relative="1" as="geometry">
            <mxPoint x="50" y="2460" as="sourcePoint" />
            <mxPoint x="250" y="2250" as="targetPoint" />
          </mxGeometry>
        </mxCell>
        <mxCell id="99" value="" style="endArrow=none;html=1;rounded=0;entryX=0;entryY=0.5;entryDx=0;entryDy=0;" edge="1" parent="1" target="57">
          <mxGeometry width="50" height="50" relative="1" as="geometry">
            <mxPoint x="50" y="2460" as="sourcePoint" />
            <mxPoint x="290" y="2330" as="targetPoint" />
          </mxGeometry>
        </mxCell>
        <mxCell id="100" value="" style="endArrow=none;html=1;rounded=0;entryX=0;entryY=0.5;entryDx=0;entryDy=0;" edge="1" parent="1" target="59">
          <mxGeometry width="50" height="50" relative="1" as="geometry">
            <mxPoint x="50" y="2460" as="sourcePoint" />
            <mxPoint x="290" y="2360" as="targetPoint" />
          </mxGeometry>
        </mxCell>
        <mxCell id="101" value="" style="endArrow=none;html=1;rounded=0;entryX=0;entryY=0.5;entryDx=0;entryDy=0;" edge="1" parent="1" target="60">
          <mxGeometry width="50" height="50" relative="1" as="geometry">
            <mxPoint x="50" y="2460" as="sourcePoint" />
            <mxPoint x="280" y="2400" as="targetPoint" />
          </mxGeometry>
        </mxCell>
        <mxCell id="102" value="đăng xuất" style="ellipse;whiteSpace=wrap;html=1;" vertex="1" parent="1">
          <mxGeometry x="40" y="1190" width="120" height="80" as="geometry" />
        </mxCell>
        <mxCell id="103" value="" style="endArrow=none;html=1;rounded=0;exitX=1;exitY=1;exitDx=0;exitDy=0;exitPerimeter=0;" edge="1" parent="1" source="5" target="102">
          <mxGeometry width="50" height="50" relative="1" as="geometry">
            <mxPoint x="-220" y="870" as="sourcePoint" />
            <mxPoint x="-170" y="820" as="targetPoint" />
          </mxGeometry>
        </mxCell>
        <mxCell id="104" value="" style="endArrow=none;html=1;rounded=0;entryX=0.5;entryY=1;entryDx=0;entryDy=0;" edge="1" parent="1" target="102">
          <mxGeometry width="50" height="50" relative="1" as="geometry">
            <mxPoint x="50" y="2450" as="sourcePoint" />
            <mxPoint x="20" y="1610" as="targetPoint" />
          </mxGeometry>
        </mxCell>
      </root>
    </mxGraphModel>
  </diagram>
</mxfile>
